PathFileType	4	(X/Y/Z)	RBDS013\RBDS013runT25.trc
DataRate	CameraRate	NumFrames	NumMarkers	Units	OrigDataRate	OrigDataStartFrame	OrigNumFrames
150.000000	150.000000	4	33	mm	150.000000	562	4500
Frame#	Time	L.ASIS			L.Heel.Bottom			L.Heel.Lateral			L.Heel.Top			L.Iliac.Crest			L.MT1			L.MT5			L.PSIS			L.Shank.Bottom.Lateral			L.Shank.Bottom.Medial			L.Shank.Top.Lateral			L.Shank.Top.Medial			L.Thigh.Bottom.Lateral			L.Thigh.Bottom.Medial			L.Thigh.Top.Lateral			L.Thigh.Top.Medial			R.ASIS			R.ASY			R.Heel.Bottom			R.Heel.Lateral			R.Heel.Top			R.Iliac.Crest			R.MT1			R.MT5			R.PSIS			R.Shank.Bottom.Lateral			R.Shank.Bottom.Medial			R.Shank.Top.Lateral			R.Shank.Top.Medial			R.Thigh.Bottom.Lateral			R.Thigh.Bottom.Medial			R.Thigh.Top.Lateral			R.Thigh.Top.Medial			
		X1	Y1	Z1	X2	Y2	Z2	X3	Y3	Z3	X4	Y4	Z4	X5	Y5	Z5	X6	Y6	Z6	X7	Y7	Z7	X8	Y8	Z8	X9	Y9	Z9	X10	Y10	Z10	X11	Y11	Z11	X12	Y12	Z12	X13	Y13	Z13	X14	Y14	Z14	X15	Y15	Z15	X16	Y16	Z16	X17	Y17	Z17	X18	Y18	Z18	X19	Y19	Z19	X20	Y20	Z20	X21	Y21	Z21	X22	Y22	Z22	X23	Y23	Z23	X24	Y24	Z24	X25	Y25	Z25	X26	Y26	Z26	X27	Y27	Z27	X28	Y28	Z28	X29	Y29	Z29	X30	Y30	Z30	X31	Y31	Z31	X32	Y32	Z32	X33	Y33	Z33	

563	3.746666666666667	2222.145853177358	956.7870426332779	899.7133746457367	2097.813107495365	135.553537059225	984.6607908013441	2121.83069202104	150.8103175737037	939.4724455837668	2117.580558334641	178.7341824123604	980.4291437652622	2170.046397927585	1041.998961762536	865.5762556212587	2307.675177272332	103.6754779692618	994.1872903114353	2263.65492299303	92.60187780603395	893.3223245385043	2067.359751141427	1016.927923511225	959.6237572878686	2189.482435847346	250.6252541225224	915.3929430382549	2156.052741285791	263.1226773767654	958.1052286989725	2201.595679676789	329.6121801142745	903.0946541560601	2170.372211694156	342.0577643232488	945.3401209148568	2306.038965320616	645.7242677451444	869.990473663951	2241.382664128604	614.8826381598723	884.5714244807997	2252.857619539458	739.5297057574771	847.4469155344069	2191.947448875927	711.0955239305481	861.5153526082584	2223.272788853502	947.7855776781498	1128.575348903708	1850.008106175892	125.1776118656421	1080.902914600137	1683.876699308129	216.1791745952403	1053.133295198408	1710.60359133608	211.0881697134871	1096.072225362087	1724.848829140419	245.6778990574777	1059.562510259048	2195.861890809377	1020.158226904396	1157.273113316456	1845.032235785736	84.76941124217646	1030.171065932944	1807.635625278568	89.99792341802861	1132.073013552363	2065.840544718354	1016.874763397263	1060.89358111631	1799.244547923307	275.676705352947	1118.033912647569	1774.389290068145	297.135938712318	1078.262427828076	1835.992163753479	350.8624137088332	1132.723654230404	1807.887915405568	369.5837011888589	1091.19245470364	2038.816483715163	656.773842502596	1165.823249460879	1988.886786220926	673.2177253221344	1114.238819319459	2061.926555481807	763.6190699857112	1173.200910728794	2014.537495804105	780.0194442114155	1124.635858129203	
564	3.753333333333333	2222.450693500064	958.812635444144	899.0818110180824	2121.465343792893	121.3255815518884	986.4790367166286	2144.126394727462	138.0368419273705	941.0541258157524	2138.206941158694	165.6964444840577	981.9004230118381	2170.594533619921	1044.854641987124	865.3600289082119	2332.922741290785	104.0560208981356	994.7261077060045	2289.288272574627	89.5989881242966	894.1693067522457	2068.482269551388	1019.763189421358	959.4197229895643	2204.291007770886	242.8349841069052	916.1060021284383	2170.849185130199	253.2344127904755	959.3768731461029	2211.329793652923	322.3378553779897	903.4214227488567	2179.982909491093	332.8015861600126	946.2243402114693	2301.914738725835	643.9911815048257	869.4113352891349	2236.970552316989	614.4010474411276	884.9342474789573	2250.103085249388	738.599904173365	846.9055967530018	2188.837108216735	711.3037272499863	861.8112702165778	2224.010053783539	950.4487061543705	1127.936787151189	1836.413941790079	133.8177670391747	1081.558434833246	1673.453919250326	229.6310529967517	1051.556715785326	1699.425748084419	223.9091029034609	1094.859183284772	1715.266481177675	257.915392824394	1058.494321298817	2196.828803353241	1023.426835139936	1156.610783210113	1831.161033117663	93.07060048313785	1031.097411835262	1792.358401363411	99.80911492506895	1132.299785805052	2067.030515586272	1020.134062796918	1060.720489588351	1789.885434351497	285.3310775277607	1117.631219313193	1766.080760586075	307.3661452885716	1077.690773010317	1828.990175468324	359.3204806224603	1132.382411182596	1801.747858267356	378.7511104764073	1090.647292495638	2038.869572023996	659.8352773198194	1165.863220373489	1988.61944663915	676.5714017617577	1114.625827789164	2062.469137401298	766.5997225181145	1173.238507492756	2014.975270609751	783.1735870223418	1124.857907931178	
565	3.76	2222.690273671856	960.2485450508015	898.5537911590202	2144.758173701336	108.5974170943325	987.8394950276345	2166.177333407272	126.5486794422862	942.2442784162047	2158.455862410175	153.9076601546823	982.9131180002405	2171.021729221421	1046.821778130253	865.0958273560841	2356.681194277185	105.7926026672285	995.5422873316646	2314.077987649851	87.81288701367006	895.1953415828867	2069.492876271345	1021.941799130096	959.1653017130718	2218.752283320563	235.8419606082182	916.5813787036703	2185.245352875937	244.2459810714445	960.2224845425544	2220.892676672152	315.4926593853589	903.526410885813	2189.331335778489	324.0973793368469	946.6683287548946	2297.413395321716	641.5922513523477	868.5756767961688	2232.194282479893	613.359471955037	885.2027076772598	2247.087788160496	737.0386682736463	846.1498544889106	2185.489515328054	710.9824334628352	862.0278779311976	2224.635660831807	952.7477512102366	1127.464635576934	1822.59772393266	143.0146555531203	1082.0768678257	1662.999639466095	243.4705601390397	1049.694727938267	1688.147354690177	237.1777067962552	1093.39749812442	1705.600427677318	270.5097770271528	1057.165240129757	2197.478327719771	1026.212702820005	1156.033741283301	1816.983400471105	102.0533855966743	1031.876170785868	1776.825966683694	110.365221996058	1132.391504445723	2068.082180452441	1022.85039526373	1060.454258716898	1780.573742526917	295.3833776423937	1117.045591028941	1757.962917228385	318.0359332064061	1076.900013873082	1822.298132821152	367.9422944185966	1131.883635170764	1796.046425675052	388.1512905620542	1089.918696971036	2039.816669814776	662.0371922933136	1165.986961621822	1989.065250990384	678.9503870060406	1115.2333787241	2063.54417930394	768.7711248594291	1173.406860046056	2015.78613395654	785.4145377054004	1125.346296809443	
566	3.766666666666667	2222.879045258683	961.1132631866027	898.1380513728827	2167.315236268396	97.36198157187297	988.7754521317901	2187.617386529944	116.3544745069338	943.0611332122406	2177.990299051572	143.373569574516	983.4897651266421	2171.350197624174	1047.896791134511	864.7789824995823	2378.683057602886	108.7157804057151	996.59492467517	2337.697480042499	87.14403855127119	896.3731761847708	2070.364150503387	1023.440158975082	958.8525989429435	2232.650922469509	229.6671403356636	916.8292508307227	2198.989892503047	236.175780295732	960.6428080317742	2230.121461428614	309.1488613579339	903.4285645074154	2198.229212039632	316.0095969715241	946.6852846261571	2292.704364180833	638.7019618523337	867.5431265454736	2227.23178702262	611.8930096627083	885.3845830167926	2243.943613085421	734.9922067150715	845.227387078545	2182.049891799386	710.2446018863284	862.1746458017273	2225.189318265175	954.6613923376949	1127.143952154974	1808.692734918717	152.7061209545289	1082.455282412832	1652.694967443898	257.7716460756526	1047.662943688799	1676.985114162333	250.9414989387547	1091.775267717375	1696.058100374928	283.4987133643713	1055.660512748177	2197.826335622865	1028.508879324555	1155.53835131269	1802.573775003568	111.6455542549519	1032.492098384199	1761.200286102282	121.6133247293864	1132.362275115076	2068.997418978469	1024.979041113081	1060.086946758967	1771.461756749393	305.8116204599847	1116.322104632022	1750.16917023011	329.0975060314007	1075.927055389829	1815.998405931033	376.7089607717873	1131.246974138086	1790.859786361198	397.7349192302352	1089.025747475555	2041.5613893471	663.37756503711	1166.179671640017	1990.165518573125	680.3579957029496	1116.017174467703	2065.088268612692	770.1289600693749	1173.684434204317	2016.931196911027	786.7484505151701	1126.050703925125	
